<svg xmlns="http://www.w3.org/2000/svg" viewBox="0 0 400 300" width="400" height="300">
  <defs>
    <linearGradient id="bgGrad3" x1="0%" y1="0%" x2="100%" y2="100%">
      <stop offset="0%" style="stop-color:#667eea;stop-opacity:1" />
      <stop offset="100%" style="stop-color:#764ba2;stop-opacity:1" />
    </linearGradient>
    <linearGradient id="mixerGrad" x1="0%" y1="0%" x2="100%" y2="100%">
      <stop offset="0%" style="stop-color:#2c3e50;stop-opacity:1" />
      <stop offset="100%" style="stop-color:#34495e;stop-opacity:1" />
    </linearGradient>
  </defs>
  
  <!-- Background -->
  <rect width="400" height="300" fill="url(#bgGrad3)"/>
  
  <!-- Mixing Console -->
  <rect x="50" y="100" width="300" height="120" rx="10" fill="url(#mixerGrad)" stroke="#555" stroke-width="2"/>
  
  <!-- Channel strips -->
  <rect x="70" y="120" width="25" height="80" rx="3" fill="#1a1a1a" stroke="#333" stroke-width="1"/>
  <rect x="110" y="120" width="25" height="80" rx="3" fill="#1a1a1a" stroke="#333" stroke-width="1"/>
  <rect x="150" y="120" width="25" height="80" rx="3" fill="#1a1a1a" stroke="#333" stroke-width="1"/>
  <rect x="190" y="120" width="25" height="80" rx="3" fill="#1a1a1a" stroke="#333" stroke-width="1"/>
  <rect x="230" y="120" width="25" height="80" rx="3" fill="#1a1a1a" stroke="#333" stroke-width="1"/>
  <rect x="270" y="120" width="25" height="80" rx="3" fill="#1a1a1a" stroke="#333" stroke-width="1"/>
  <rect x="310" y="120" width="25" height="80" rx="3" fill="#1a1a1a" stroke="#333" stroke-width="1"/>
  
  <!-- Faders -->
  <rect x="75" y="140" width="15" height="4" rx="2" fill="#00ff00"/>
  <rect x="115" y="160" width="15" height="4" rx="2" fill="#ff6b6b"/>
  <rect x="155" y="150" width="15" height="4" rx="2" fill="#ffd700"/>
  <rect x="195" y="170" width="15" height="4" rx="2" fill="#00bfff"/>
  <rect x="235" y="145" width="15" height="4" rx="2" fill="#ff69b4"/>
  <rect x="275" y="155" width="15" height="4" rx="2" fill="#32cd32"/>
  <rect x="315" y="165" width="15" height="4" rx="2" fill="#ff4500"/>
  
  <!-- Knobs -->
  <circle cx="82" cy="130" r="5" fill="#34495e" stroke="#555" stroke-width="1"/>
  <circle cx="122" cy="130" r="5" fill="#34495e" stroke="#555" stroke-width="1"/>
  <circle cx="162" cy="130" r="5" fill="#34495e" stroke="#555" stroke-width="1"/>
  <circle cx="202" cy="130" r="5" fill="#34495e" stroke="#555" stroke-width="1"/>
  <circle cx="242" cy="130" r="5" fill="#34495e" stroke="#555" stroke-width="1"/>
  <circle cx="282" cy="130" r="5" fill="#34495e" stroke="#555" stroke-width="1"/>
  <circle cx="322" cy="130" r="5" fill="#34495e" stroke="#555" stroke-width="1"/>
  
  <!-- Knob indicators -->
  <line x1="82" y1="127" x2="82" y2="125" stroke="#fff" stroke-width="1"/>
  <line x1="122" y1="127" x2="122" y2="125" stroke="#fff" stroke-width="1"/>
  <line x1="162" y1="127" x2="162" y2="125" stroke="#fff" stroke-width="1"/>
  <line x1="202" y1="127" x2="202" y2="125" stroke="#fff" stroke-width="1"/>
  <line x1="242" y1="127" x2="242" y2="125" stroke="#fff" stroke-width="1"/>
  <line x1="282" y1="127" x2="282" y2="125" stroke="#fff" stroke-width="1"/>
  <line x1="322" y1="127" x2="322" y2="125" stroke="#fff" stroke-width="1"/>
  
  <!-- VU Meters -->
  <rect x="60" y="240" width="80" height="15" rx="2" fill="#000" stroke="#333" stroke-width="1"/>
  <rect x="260" y="240" width="80" height="15" rx="2" fill="#000" stroke="#333" stroke-width="1"/>
  
  <!-- VU Meter bars -->
  <rect x="62" y="242" width="8" height="11" fill="#00ff00"/>
  <rect x="72" y="242" width="8" height="11" fill="#00ff00"/>
  <rect x="82" y="242" width="8" height="11" fill="#ffff00"/>
  <rect x="92" y="242" width="8" height="11" fill="#ffff00"/>
  <rect x="102" y="242" width="8" height="11" fill="#ff6b6b"/>
  
  <rect x="262" y="242" width="8" height="11" fill="#00ff00"/>
  <rect x="272" y="242" width="8" height="11" fill="#00ff00"/>
  <rect x="282" y="242" width="8" height="11" fill="#ffff00"/>
  <rect x="292" y="242" width="8" height="11" fill="#ffff00"/>
  <rect x="302" y="242" width="8" height="11" fill="#ff6b6b"/>
  
  <!-- Waveform visualization -->
  <path d="M 30 70 L 35 65 L 40 75 L 45 60 L 50 80 L 55 55 L 60 85 L 65 50 L 70 90" 
        stroke="#00ff00" stroke-width="2" fill="none" opacity="0.8"/>
  <path d="M 330 70 L 335 65 L 340 75 L 345 60 L 350 80 L 355 55 L 360 85 L 365 50 L 370 90" 
        stroke="#00ff00" stroke-width="2" fill="none" opacity="0.8"/>
  
  <!-- Title -->
  <text x="200" y="40" text-anchor="middle" fill="#fff" font-family="Arial, sans-serif" font-size="22" font-weight="bold">MIXING &amp; MASTERING</text>
</svg>